<svg width="51" height="58" viewBox="0 0 51 58" fill="none" xmlns="http://www.w3.org/2000/svg">
<path d="M19.8129 22.786V20.4408C19.0312 20.3254 18.2494 20.2742 17.4549 20.2742C7.83034 20.2742 0 28.1045 0 37.7418C0 43.4448 2.78099 48.7761 7.45868 52.0441C7.38179 51.9544 7.29208 51.8646 7.21519 51.7749C4.45983 48.6864 2.8707 44.611 2.8707 40.1512C2.83225 30.7061 10.3806 22.9783 19.8129 22.786Z" fill="#25F4EE"/>
<path d="M40.9458 11.0729C38.8569 8.67638 37.7035 5.60063 37.7035 2.42236H35.1019C35.7555 6.03636 37.9726 9.13774 40.9458 11.0729ZM17.4676 29.694C13.0719 29.694 9.41943 33.3464 9.41943 37.7422C9.41943 40.8051 11.2264 43.4708 13.7639 44.8036C11.1752 41.2537 11.9569 36.294 15.494 33.7053C17.5317 32.2186 20.1717 31.7829 22.5811 32.5519V22.8633C21.7993 22.7479 21.0176 22.6967 20.223 22.6967C20.082 22.6967 19.9539 22.7095 19.8129 22.7095L19.7488 22.7223V30.04C19.0055 29.7837 18.2366 29.6812 17.4676 29.694Z" fill="#FE2C55"/>
<path d="M20.2359 48.1867C24.5291 48.1867 28.1047 44.7008 28.2713 40.4461L28.2841 2.48623L35.1789 2.49904L35.1661 2.40933C35.0123 1.61477 34.9482 0.807383 34.9482 0H25.4647L25.4391 38.0239C25.2853 42.4197 21.5944 45.8542 17.1986 45.7005C16.0068 45.662 14.8277 45.3416 13.7769 44.7905C15.2122 46.8026 17.5703 48.1867 20.2359 48.1867ZM48.1355 15.4813V13.2129C45.5852 13.2129 43.0861 12.4696 40.9459 11.0727C42.7914 13.1873 45.2904 14.8661 48.1355 15.4813Z" fill="#25F4EE"/>
<path d="M48.1352 15.3275L48.084 15.3147L48.0583 22.6196C43.3294 22.6196 38.7158 21.1202 34.8711 18.352L34.8583 37.742C34.8711 47.3409 27.1048 55.12 17.5187 55.1328H17.4675C13.751 55.1328 10.2907 54.0306 7.4585 52.0314C10.7521 55.5813 15.3785 57.6062 20.2357 57.6062C29.8602 57.6062 37.7033 49.7759 37.7033 40.1385V20.8639C41.548 23.632 46.1616 25.1186 50.9034 25.1058V15.6223C49.9679 15.6223 49.0451 15.5197 48.1352 15.3275Z" fill="#FE2C55"/>
<path d="M34.9352 37.7422V18.4547C38.7799 21.2229 43.3935 22.7095 48.1353 22.6967V15.3277C45.3415 14.7253 42.8168 13.2387 40.9458 11.0729C37.9085 9.0993 35.8195 5.97229 35.1531 2.42236H28.207L28.1942 40.4463C28.0404 44.842 24.3495 48.2766 19.9538 48.1228C17.4932 48.0331 15.1992 46.8156 13.7639 44.8036C9.86791 42.7659 8.35567 37.9472 10.3934 34.0385C11.7646 31.4113 14.4943 29.7581 17.4548 29.7581C18.2493 29.7581 19.0439 29.8862 19.8128 30.1297V22.6967C10.3805 22.9273 2.76807 30.668 2.76807 40.1643C2.76807 44.5857 4.44691 48.8277 7.45858 52.0572C10.3934 54.1205 13.8792 55.2227 17.4676 55.2227C27.0921 55.2099 34.9352 47.3667 34.9352 37.7422Z" fill="white"/>
</svg>
