<svg width="58" height="58" viewBox="0 0 58 58" fill="none" xmlns="http://www.w3.org/2000/svg">
<path d="M57.6063 28.8031C57.6063 12.8956 44.7107 0 28.8031 0C12.8956 0 0 12.8956 0 28.8031C0 43.1796 10.5329 55.0956 24.3026 57.2564V37.129H16.9893V28.8031H24.3026V22.4574C24.3026 15.2387 28.6028 11.2512 35.182 11.2512C38.3333 11.2512 41.6295 11.8138 41.6295 11.8138V18.9021H37.9975C34.4195 18.9021 33.3036 21.1223 33.3036 23.4001V28.8031H41.292L40.015 37.129H33.3036V57.2564C47.0734 55.0956 57.6063 43.1796 57.6063 28.8031Z" fill="#1877F2"/>
<path d="M40.0149 37.129L41.2919 28.8031H33.3035V23.4001C33.3035 21.1223 34.4194 18.9021 37.9974 18.9021H41.6294V11.8138C41.6294 11.8138 38.3332 11.2512 35.1819 11.2512C28.6027 11.2512 24.3026 15.2387 24.3026 22.4574V28.8031H16.9893V37.129H24.3026V57.2564C25.769 57.4864 27.272 57.6063 28.803 57.6063C30.3341 57.6063 31.8371 57.4864 33.3035 57.2564V37.129H40.0149Z" fill="white"/>
</svg>
