<svg width="58" height="58" viewBox="0 0 58 58" fill="none" xmlns="http://www.w3.org/2000/svg">
<path d="M28.8123 0C16.787 0 13.2701 0.0124084 12.5869 0.0691333C10.1192 0.274315 8.58357 0.662996 6.91069 1.4961C5.62146 2.13651 4.60471 2.87876 3.60121 3.91936C1.77365 5.81697 0.666054 8.15129 0.265114 10.9266C0.0701749 12.2734 0.0134904 12.5482 0.00196911 19.4298C-0.00246139 21.7237 0.00196911 24.7425 0.00196911 28.7914C0.00196911 40.8098 0.0152606 44.3244 0.0728536 45.007C0.272223 47.409 0.648807 48.9201 1.4463 50.5732C2.97039 53.7374 5.88118 56.1127 9.31013 56.9991C10.4975 57.3049 11.8089 57.4733 13.4925 57.5531C14.2057 57.5841 21.4761 57.6063 28.7506 57.6063C36.0251 57.6063 43.3002 57.5974 43.9955 57.5619C45.9449 57.4702 47.0769 57.3182 48.3285 56.9947C50.0288 56.5585 51.6134 55.7563 52.9717 54.6441C54.3299 53.5319 55.4291 52.1366 56.1923 50.5555C56.9743 48.9424 57.3708 47.3736 57.5502 45.0971C57.5892 44.6007 57.6056 36.6871 57.6056 28.7841C57.6056 20.88 57.5878 12.981 57.5489 12.4844C57.3703 10.1715 56.9717 8.61618 56.1646 6.97209C55.5022 5.62595 54.7671 4.62084 53.6991 3.5932C51.7935 1.77267 49.4633 0.66473 46.6861 0.264136C45.341 0.0695884 45.0725 0.0119764 38.188 1.15369e-05L28.8123 0Z" fill="url(#paint0_radial_119_60)"/>
<path d="M28.8123 0C16.787 0 13.2701 0.0124084 12.5869 0.0691333C10.1192 0.274315 8.58357 0.662996 6.91069 1.4961C5.62146 2.13651 4.60471 2.87876 3.60121 3.91936C1.77365 5.81697 0.666054 8.15129 0.265114 10.9266C0.0701749 12.2734 0.0134904 12.5482 0.00196911 19.4298C-0.00246139 21.7237 0.00196911 24.7425 0.00196911 28.7914C0.00196911 40.8098 0.0152606 44.3244 0.0728536 45.007C0.272223 47.409 0.648807 48.9201 1.4463 50.5732C2.97039 53.7374 5.88118 56.1127 9.31013 56.9991C10.4975 57.3049 11.8089 57.4733 13.4925 57.5531C14.2057 57.5841 21.4761 57.6063 28.7506 57.6063C36.0251 57.6063 43.3002 57.5974 43.9955 57.5619C45.9449 57.4702 47.0769 57.3182 48.3285 56.9947C50.0288 56.5585 51.6134 55.7563 52.9717 54.6441C54.3299 53.5319 55.4291 52.1366 56.1923 50.5555C56.9743 48.9424 57.3708 47.3736 57.5502 45.0971C57.5892 44.6007 57.6056 36.6871 57.6056 28.7841C57.6056 20.88 57.5878 12.981 57.5489 12.4844C57.3703 10.1715 56.9717 8.61618 56.1646 6.97209C55.5022 5.62595 54.7671 4.62084 53.6991 3.5932C51.7935 1.77267 49.4633 0.66473 46.6861 0.264136C45.341 0.0695884 45.0725 0.0119764 38.188 1.15369e-05L28.8123 0Z" fill="url(#paint1_radial_119_60)"/>
<path d="M35.9069 28.6297C35.9069 24.7062 32.7264 21.5252 28.8029 21.5251C24.8794 21.5251 21.6983 24.7061 21.6983 28.6297C21.6984 32.5532 24.8794 35.7337 28.8029 35.7337C32.7263 35.7336 35.9069 32.5531 35.9069 28.6297ZM40.0018 28.6297C40.0017 34.8146 34.9878 39.8285 28.8029 39.8286C22.6179 39.8286 17.6041 34.8147 17.604 28.6297C17.604 22.4446 22.6179 17.4308 28.8029 17.4308C34.9879 17.4309 40.0018 22.4447 40.0018 28.6297Z" fill="white"/>
<path d="M46.3018 20.0726C46.3018 15.2786 42.4155 11.3922 37.6215 11.3922H19.9841C15.1901 11.3922 11.3037 15.2786 11.3037 20.0726V37.5333C11.3038 42.3273 15.1901 46.2136 19.9841 46.2136H37.6215C42.4154 46.2136 46.3017 42.3273 46.3018 37.5333V20.0726ZM50.4507 37.5333C50.4506 44.6186 44.7068 50.3625 37.6215 50.3625H19.9841C12.8987 50.3625 7.15439 44.6186 7.1543 37.5333V20.0726C7.1543 12.9872 12.8987 7.2428 19.9841 7.2428H37.6215C44.7069 7.2428 50.4507 12.9872 50.4507 20.0726V37.5333Z" fill="white"/>
<path d="M40.4492 19.9875C41.8851 19.9875 43.0492 18.8234 43.0492 17.3874C43.0492 15.9514 41.8851 14.7874 40.4492 14.7874C39.0132 14.7874 37.8491 15.9514 37.8491 17.3874C37.8491 18.8234 39.0132 19.9875 40.4492 19.9875Z" fill="white"/>
<defs>
<radialGradient id="paint0_radial_119_60" cx="0" cy="0" r="1" gradientUnits="userSpaceOnUse" gradientTransform="translate(15.2993 62.0435) rotate(-90) scale(57.091 53.0994)">
<stop stop-color="#FFDD55"/>
<stop offset="0.1" stop-color="#FFDD55"/>
<stop offset="0.5" stop-color="#FF543E"/>
<stop offset="1" stop-color="#C837AB"/>
</radialGradient>
<radialGradient id="paint1_radial_119_60" cx="0" cy="0" r="1" gradientTransform="matrix(5.00889 25.0239 -103.147 20.6586 -9.65325 4.14423)" gradientUnits="userSpaceOnUse">
<stop stop-color="#3771C8"/>
<stop offset="0.128" stop-color="#3771C8"/>
<stop offset="1" stop-color="#6600FF" stop-opacity="0"/>
</radialGradient>
</defs>
</svg>
