<svg width="144" height="33" viewBox="0 0 144 33" fill="none" xmlns="http://www.w3.org/2000/svg">
<path d="M30.2264 32.261H4.59779C2.91924 32.261 1.28163 31.3603 0.503762 29.8455C-0.396925 28.0851 -0.0694025 25.9971 1.32257 24.6461L19.1725 6.79609H6.35823C2.83736 6.79609 0.0124782 3.93027 0.0124782 0.450343H23.635C25.3136 0.450343 26.9512 1.35103 27.7291 2.86582C28.6298 4.62626 28.3022 6.71421 26.9103 8.06524L9.06029 25.9152H23.8397C27.3606 25.9152 30.2264 28.781 30.2264 32.261ZM131.677 0C127.992 0 124.717 1.59667 122.424 4.13497C120.131 1.59667 116.856 0 113.171 0C106.375 0 100.808 5.81352 100.808 12.6096V32.261C104.328 32.261 107.153 29.3951 107.153 25.9152V12.5687C107.153 9.29345 109.692 6.50951 112.967 6.38669C116.406 6.26387 119.231 9.00687 119.231 12.4049V25.9152C119.231 29.4361 122.096 32.261 125.576 32.261V12.5277C125.576 9.25251 128.115 6.46857 131.39 6.34575C134.829 6.22293 137.654 8.96593 137.654 12.364V25.8743C137.654 29.3951 140.52 32.22 144 32.22V12.5687C144.04 5.81352 138.473 0 131.677 0ZM62.3236 16.3761C62.3236 25.4239 54.9953 32.7522 45.9475 32.7522C36.8997 32.7522 29.5714 25.4239 29.5714 16.3761C29.5714 7.32831 36.8997 0 45.9475 0C54.9953 0 62.3236 7.32831 62.3236 16.3761ZM55.9779 16.3761C55.9779 10.8492 51.4744 6.34575 45.9475 6.34575C40.4206 6.34575 35.9171 10.8492 35.9171 16.3761C35.9171 21.9031 40.4206 26.4065 45.9475 26.4065C51.4744 26.4065 55.9779 21.9031 55.9779 16.3761ZM97.6142 16.3761C97.6142 25.4239 90.2859 32.7522 81.2381 32.7522C72.1903 32.7522 64.8619 25.4239 64.8619 16.3761C64.8619 7.32831 72.1903 0 81.2381 0C90.2859 0 97.6142 7.32831 97.6142 16.3761ZM91.2684 16.3761C91.2684 10.8492 86.765 6.34575 81.2381 6.34575C75.7111 6.34575 71.2077 10.8492 71.2077 16.3761C71.2077 21.9031 75.7111 26.4065 81.2381 26.4065C86.765 26.4065 91.2684 21.9031 91.2684 16.3761Z" fill="#0B5CFF"/>
</svg>
