<svg width="75" height="53" viewBox="0 0 75 53" fill="none" xmlns="http://www.w3.org/2000/svg">
<path d="M73.1707 8.16865C72.7448 6.58513 71.9103 5.14131 70.7508 3.98179C69.5913 2.82228 68.1475 1.98777 66.5639 1.56185C60.7355 0.00012207 37.3662 0.00012207 37.3662 0.00012207C37.3662 0.00012207 13.9965 0.00012207 8.16853 1.56185C6.58503 1.98782 5.14123 2.82234 3.98172 3.98184C2.82221 5.14135 1.98769 6.58515 1.56173 8.16865C0 13.9971 0 26.1565 0 26.1565C0 26.1565 0 38.3163 1.56173 44.1439C1.98765 45.7274 2.82216 47.1712 3.98167 48.3307C5.14119 49.4902 6.58501 50.3247 8.16853 50.7507C13.9965 52.3128 37.3662 52.3128 37.3662 52.3128C37.3662 52.3128 60.7355 52.3128 66.5639 50.7507C68.1475 50.3248 69.5913 49.4903 70.7508 48.3308C71.9104 47.1712 72.7449 45.7274 73.1707 44.1439C74.7325 38.3158 74.7325 26.156 74.7325 26.156C74.7325 26.156 74.7325 13.9971 73.1707 8.16865Z" fill="#FF0000"/>
<path d="M29.8931 37.3663L49.3084 26.1564L29.8931 14.9465V37.3663Z" fill="white"/>
</svg>
