<svg width="70" height="68" viewBox="0 0 70 68" fill="none" xmlns="http://www.w3.org/2000/svg">
<path d="M22.1205 55.0958L34.9983 47.1952L47.876 55.1997L44.5032 40.2303L55.8479 30.2507L40.9261 28.8993L34.9983 14.7615L29.0704 28.7953L14.1486 30.1467L25.4933 40.2303L22.1205 55.0958ZM34.9983 56.9669L18.0324 67.3624C17.2829 67.8475 16.4993 68.0554 15.6817 67.9861C14.8641 67.9168 14.1486 67.6396 13.5354 67.1545C12.9222 66.6693 12.4452 66.0636 12.1045 65.3373C11.7639 64.611 11.6957 63.796 11.9001 62.8923L16.3971 43.245L1.37312 30.0428C0.691755 29.4191 0.266586 28.708 0.0976081 27.9096C-0.0713693 27.1113 -0.0209488 26.3323 0.24887 25.5728C0.518689 24.8132 0.927505 24.1895 1.47532 23.7016C2.02313 23.2137 2.77263 22.9018 3.72381 22.766L23.5514 20.9988L31.2167 2.4949C31.5574 1.66327 32.0861 1.03954 32.8029 0.623725C33.5197 0.207908 34.2515 0 34.9983 0C35.745 0 36.4768 0.207908 37.1936 0.623725C37.9104 1.03954 38.4391 1.66327 38.7798 2.4949L46.4451 20.9988L66.2727 22.766C67.2266 22.9046 67.9761 23.2165 68.5212 23.7016C69.0663 24.1867 69.4751 24.8104 69.7476 25.5728C70.0202 26.3351 70.072 27.1154 69.903 27.9138C69.734 28.7122 69.3075 29.4218 68.6234 30.0428L53.5994 43.245L58.0964 62.8923C58.3008 63.7933 58.2326 64.6083 57.892 65.3373C57.5513 66.0664 57.0743 66.6721 56.4611 67.1545C55.8479 67.6368 55.1325 67.914 54.3148 67.9861C53.4972 68.0582 52.7136 67.8503 51.9641 67.3624L34.9983 56.9669Z" fill="white"/>
</svg>
